<svg xmlns="http://www.w3.org/2000/svg" xml:space="preserve" fill-rule="evenodd" stroke-linejoin="round" stroke-miterlimit="2" clip-rule="evenodd" viewBox="0 0 600 600"><g transform="translate(-16.67 -16.67) scale(1.04167)"><path fill-rule="nonzero" d="M304 592c126.2 0 196.36 0 242.18-45.82C592 500.36 592 430.2 592 304s0-196.36-45.82-242.18C500.36 16 430.2 16 304 16S107.64 16 61.82 61.82C16 107.64 16 177.8 16 304s0 196.36 45.82 242.18C107.64 592 177.8 592 304 592Z"/><clipPath id="a"><path d="M304 592c126.2 0 196.36 0 242.18-45.82C592 500.36 592 430.2 592 304s0-196.36-45.82-242.18C500.36 16 430.2 16 304 16S107.64 16 61.82 61.82C16 107.64 16 177.8 16 304s0 196.36 45.82 242.18C107.64 592 177.8 592 304 592Z" clip-rule="nonzero"/></clipPath><g clip-path="url(#a)"><path fill="#2b2135" d="M16 16h576v576H16z"/></g></g><g fill-rule="nonzero"><path fill="#92cbeb" d="M425.58 278.95c0-2.97-.5-4.57-9.28-5.97-6.74-1.07-91.22 3.06-96.3 3.38-9.82.65-13.63 4.63-13.54 11.86.06 6.31 7.3 11.71 9.02 14.32 1.72 2.6 1.59 5.04-.54 7.77-1.64 2.1-8.57 5-8.57 12.94 0 9.75 6.37 14.66 13.63 15.3 11.4 1 63.65 1.9 77.08 2.84 6.48.45 10.44 3.34 16.92 3.81 2.97 0 11.58-7.17 11.58-10.14v-56.11Z"/><path fill="#d5ebf5" d="M564.87 296.58c0-62.99-38.14-66.09-38.14-66.09.02-.6 2-37.24-34.44-45.14-29.67-6.43-48.59 5.5-58.06 16.21-17.76-9.28-43.26-6.48-55 12.98-6.17 10.27-5.4 26.03-1.33 37.28 4.09 11.35 12.2 18.37 20.23 27.34 23.14 25.92 14.92 35.8 2.95 51.86-7.4 9.92-23.76 39.63 1.38 67.14 17.7 19.35 56.57 8.52 56.57 8.52 2.86.86 28.37 20.64 56.72 1.87 30.27-20.04 18.45-57.62 18.45-57.62s30.67-15.22 30.67-54.35Z"/><path fill="#92cbeb" d="M451.04 348.93c1.7-.5 1.8-2.87.09-3.43-7.53-2.45-21.14-8.22-29.19-19.71-7.81-11.15-12.53-37.7 3.64-49.66 23.76-17.63 19.95-37.65 13.97-45.08-6.24-7.75-22.95-6.24-22.69 7.3.04 2.5.78 4.95 1.83 7.21 2.76 5.94 7.04 14.85 1.08 20.69-2.84 2.77-7 3.61-10.9 2.86-9.2-1.79-16.2-8.98-19.88-17.33-10.64-24.17-1.62-38.74 11.06-51.36.67-.67-.02-1.8-.93-1.5-15.86 5.18-23.7 18.12-24.32 32.58-.45 10.64 1.68 21.31 7.32 30.33 4.35 6.96 11.67 12.94 16.53 19.53 3.79 5.12 11.43 11.45 10.23 18.49-1.17 6.8-6.31 12.8-10.4 18.02-11.65 14.83-17.65 34.89-12.87 53.12 8.84 33.75 35.13 37.93 43.82 38.38.7.04.93-.95.3-1.18-8.86-3.36-14.1-6.83-16.18-8.53-16.4-13.45-20.26-36.76-12.57-56.59a8.63 8.63 0 0 1 2.7-3.77c5.39-4.17 9.37 3.81 18.43 8.31 10.49 5.2 22.24 3.23 28.93 1.32ZM522.9 238.9c6.56-6.4 3.2-29-6.4-39.53-2.7-2.97-7.66-.7-7.3 3.31.59 6.72 1.73 16.51-2.19 26.6-2.26 5.84-.24 10.86 3.51 12.58 1.83.84 7.02 2.3 12.38-2.95Z"/><path fill="#61bfe8" d="M563.13 309.69c.92-4.03 1.44-7.8 1.68-11.22.1-1.64-2.18-2.09-2.67-.54-2.8 8.96-8.9 20.67-22.1 27.68-4.34 2.3-9.11 3.69-13.5 5.86-5.67 2.82-13.33 5.53-13.2 13.09.2 10.4 16.66 11.23 29.1 1.03 11.17-9.2 17.78-23.29 20.69-35.9ZM520.77 404.98c1.2-.95.17-2.8-1.27-2.3-13.46 4.52-28.87 3.25-41.27-3.75-2.69-1.53-9.43-6.44-16.47-6.97-4.45-.35-8.43 3.12-8.13 7.57.2 3.02 1.96 5.77 4.2 7.8 6.02 5.44 15.1 7.75 22.98 8.67a56.4 56.4 0 0 0 29.52-4.63 50.22 50.22 0 0 0 10.44-6.39Z"/><path fill="#92cbeb" d="M340.12 255.4c7.9-3.21 15.24-8.4 19.55-15.76 4.3-7.34 5.12-17.05.73-24.34-4.4-7.3-14.47-11.09-22.09-7.28-5.66 2.84-7.2 8.24-4.4 14.64 2.27 5.2 6.26 6.11 5.48 12.9-.99 8.73-11.8 16.22-16.92 18.37-4.35 1.81-11.92 7.3-2.47 6.63 6.65-.43 13.97-2.67 20.12-5.16Z"/><path fill="#61bfe8" d="M363.33 379.56c2.15 5.44 5.2 19.52-7.4 21.29-10.13 1.42-15.98-9.65-18.26-19.4-3.06-13.04-14.34-19.82-19.5-24.69a1.66 1.66 0 0 1 1.03-2.86c9.34-.71 33.97.04 44.13 25.66Z"/><path fill="#92cbeb" d="M451.73 195.45c-2.84 2.3-5.66 5.47-8.2 8.1-.9.92-5.2 6.6-9.36 3-2-1.74-.07-5.98.58-7.16 2.5-4.57 10.18-12.87 26.2-16.28 5.3-1.11 20.62-.88 20.62.65 0 2.07-17.85 1.9-29.84 11.69Z"/><path fill="#039be5" d="M374.6 291.93h-67.35c1.01 2.4 2.78 4.6 4.46 6.45h62.9a3.22 3.22 0 1 0 0-6.45ZM393.46 311h-79.19c-2.15 1.91-6.46 3.68-7.45 8.97h86.64a5.4 5.4 0 0 0 5.38-5.4c0-2.97-2.4-3.57-5.38-3.57Z"/></g><path fill="#4568ad" fill-rule="nonzero" d="m197.28 336.55-3.51-5.04c-2.37-3.42-8.57-4.9-8.57-4.9l-12.6 8.73-8.73 11.63c-2 2.99-1.98 6.89.06 9.84l1.58 2.28a2.19 2.19 0 0 0 3.05.56l28.1-19.6a2.52 2.52 0 0 0 .62-3.5Z"/><path fill="#ffca28" fill-rule="nonzero" d="M135.71 184.51c-6.97-7.25-20.08-11.28-29.49-7.66-10.52 4.05-14.74 13.07-14.2 23.27.2 3.7 1.05 7.25 2.21 9.66.13.28 1.2 2.37 1.4 3.06.97 2.58-3.66 6.3-3.66 9.39 0 2.3 4.98 2.75 5.4 3.07 2.25 1.62 1.36 11.6 14.34 9.95 4.37-.56 4.59-1.01 6.16-1.1 4.09-.26 15.63 3.51 15.63 3.51l4.56-9.56s-3.75-1.72-.09-13.28c2.82-8.87 2.22-25.66-2.26-30.3Z"/><path fill="#795548" fill-rule="nonzero" d="M99.83 230.32a7.6 7.6 0 0 0 4.71-2.45c1.38-1.55-.02-2.65-1.72-1.49a7.82 7.82 0 0 1-4.09 1.31l1.1 2.63Z"/><ellipse cx="36.88" cy="23.43" fill="#404040" rx="1.11" ry="1.69" transform="rotate(-13.95 754.59 31.56) scale(2.15257)"/><path fill="#6d4c41" fill-rule="nonzero" d="M101.2 208.17c-2 1.38-2.98.1-2.64-1.31.26-1.04 1.36-2.2 4.11-2.56 2.59-.33 4.07.73 5 1.35.94.63 1.14 1.5.6 1.77-.73.36-4.59-.95-7.06.75Z"/><path fill="#543930" fill-rule="nonzero" d="M138.84 188.41a22.42 22.42 0 0 0-3.1-3.44 22.46 22.46 0 0 0-5.51-3.53 27.56 27.56 0 0 0-16.97-2.07 24.7 24.7 0 0 0-14.48 8.93c-2.74 3.55-4.42 8.42-2.7 12.55 2.14-.62 3.7-2.47 6.03-2.95 3.02-.64 6.3-.69 8.87-2.39 1-.64 1.83-1.53 2.76-2.26.23-.06.38-.08.38-.08 4.12 1.18 1.08 10.82 6.27 15.02 1.03.84 2.24 1.53 2.24 1.53s-.89-6.8 3.46-6.87c4.52-.06 4.89 4.57 3.6 8.5-1.34 4.1-3.64 2.65-2.82 4.01 1.33 2.22 8.2 2.86 10.35 2.41 2.89-.58 4.74-3.72 6.46-6.11 2-2.76 1.83-6.03 1.53-9.43-.35-3.75-2.13-7.21-4.11-10.42a42.36 42.36 0 0 0-2.26-3.4Z"/><path fill="#543930" fill-rule="nonzero" d="m129.02 216.8 1.64-1.68c-.2-.06-.41-.1-.59-.17a8.12 8.12 0 0 0 1.62-3c.56-1.7 1.61-5.95-.54-8.92a5.82 5.82 0 0 0-4.95-2.35h-.13c-1.55.02-2.9.62-3.87 1.76a7 7 0 0 0-1.45 3.02c-.94-1.36-1.35-3.17-1.63-5.04l-1.98.9c.43 2.55 1.18 5.13 3.25 6.8 1.03.85 2.24 1.54 2.24 1.54s-.89-6.8 3.46-6.87h.11c4.41 0 4.78 4.58 3.5 8.5-1.33 4.1-3.63 2.65-2.81 4 .32.65 1.14 1.12 2.13 1.51Z"/><path fill="#eda600" fill-rule="nonzero" d="m204.34 269.05-13.37-25.13-51.77 29.95v.02a12.08 12.08 0 0 0-3.85 18.06l.08.1c.11.14.22.26.33.42l36.29 43.63 15.24-11.22-24.5-35.62 41.55-20.21Z"/><path fill="#646464" fill-rule="nonzero" d="M212.84 248.38a16.92 16.92 0 0 0-22.88-6.97v-.03l-36.53 21.23 15.15 28.5 37.26-19.83a16.92 16.92 0 0 0 7-22.9Z"/><path fill="#e0e0e0" fill-rule="nonzero" d="m177.95 311.32-16.45 12.1 10.55 12.68 15.24-11.22-9.34-13.56Z"/><g fill-rule="nonzero"><path fill="url(#b)" d="M97.52 76.41a23.36 23.36 0 0 0-23.34 23.33 23.36 23.36 0 0 0 23.34 23.33 23.36 23.36 0 0 0 23.33-23.33 23.35 23.35 0 0 0-23.33-23.33Zm0 38.33a15.03 15.03 0 0 1-15.01-15c0-8.27 6.74-15 15.01-15s15 6.73 15 15-6.73 15-15 15Z" transform="translate(24.47 162.23) scale(2.15257)"/><path fill="url(#c)" d="M30.48 76.41A23.36 23.36 0 0 0 7.14 99.74a23.36 23.36 0 0 0 23.34 23.33 23.36 23.36 0 0 0 23.33-23.33 23.35 23.35 0 0 0-23.33-23.33Zm0 38.33a15.03 15.03 0 0 1-15.01-15c0-8.27 6.74-15 15.01-15s15 6.73 15 15-6.73 15-15 15Z" transform="translate(24.47 162.23) scale(2.15257)"/><path fill="url(#d)" d="M99.92 98.07a2.6 2.6 0 0 0-.37-.67l-9.17-12.34-10.19-13.74 3.74-8.13a2.55 2.55 0 0 0 .25-1.07 2.65 2.65 0 0 0-.41-1.51 2.7 2.7 0 0 0-1.75-1.24l-.2-.03a2.2 2.2 0 0 0-.36-.04h-.04l-.08.01c-.2.01-.4.03-.59.08l-.15.04c-.22.07-.43.16-.63.28l-.04.03c-.18.12-.34.26-.49.41l-.12.13a2.7 2.7 0 0 0-.39.6l-.02.04-3.61 7.85-31.97-4.62 1.07-4.05a2.74 2.74 0 0 0-1.96-3.35l-.04-.01a2.75 2.75 0 0 0-3.31 1.95l-2.26 8.55-8.5 32.17a2.75 2.75 0 0 0 2.66 3.44H31c1.21 0 2.32-.81 2.65-2.04l7.62-28.86 20.94 28.69c.05.07.12.13.18.19l.17.18.19.16.02.02.04.03.19.13.08.05.09.05.03.02.06.03.08.03.1.04.22.08.16.05c.19.04.4.07.6.07h32.92c1.04 0 1.99-.58 2.45-1.51.36-.67.4-1.48.13-2.19ZM46.79 70.21l16.47 2.38 9.66 1.4-9.02 19.65-17.11-23.43Zm21.93 26.08 8.86-19.27L91.9 96.29H68.72Z" transform="translate(24.47 162.23) scale(2.15257)"/><path fill="#504f4f" d="M177.39 376.37c-1.01-2.2-2.87-3.74-4.85-4.07-2.54-.43-13.04 3-14.59 3.7-3.77 1.69-8.35 6.46-6.26 11.44 1.3 3.05 3.18 3.98 5.18 3.98 1.68 0 3.43-.65 5.02-1.23l1.2-.43c.8-.28 1.73-.56 2.7-.84 4.21-1.25 9.47-2.82 11.62-6.43.97-1.68.99-3.97-.02-6.12Z"/><path fill="#405966" d="M117.37 283.32 99 278.9a5.9 5.9 0 1 0-2.76 11.47l18.39 4.42a5.89 5.89 0 1 0 2.75-11.47Z"/><path fill="#504f4f" d="M214.84 284.44a8 8 0 0 0-.88-.6c-2.48-1.4-5.25-1.08-8.1-1.21-3.44-.17-6.92-.33-10.37-.54-1.9-.13-3.79-.15-5.68-.15-2.22 0-4.46.04-6.65.04-1.68 0-3.34-.02-5-.1-.08-.03-.21-.03-.34-.03-3.17 0-6.16 2.4-7.26 5.23-1.55 4.03 1.19 6.57 4.61 8.42 4.2 2.28 8.91 3.36 13.5 4.48 5 1.2 9.99 2.8 15.1 3.48.65.1 1.3.13 1.97.13 4.43 0 9.02-1.96 11.53-5.64 3.02-4.39 1.77-10.24-2.43-13.51Z"/></g><path fill="url(#e)" fill-rule="nonzero" d="M86.54 46.67 75.3 39.71 61.53 63.85h.01a5.57 5.57 0 0 0-.74 3.95l2.77 25.84 6.79-.09 1.48-24.9 14.7-21.98Z" transform="translate(24.47 162.23) scale(2.15257)"/><path fill="#e0e0e0" fill-rule="nonzero" d="m159.2 347.33 2.1 16.45 14.62-.2 1.27-16.44-18 .2Z"/><path fill="#7c7c7c" fill-rule="nonzero" d="M207.72 240.55a17 17 0 0 0-23.31 5.5l-21.81 37.48 27.44 16.99s20.58-31.86 23.17-36.66c4.15-7.75 2.47-18.39-5.5-23.31Z"/><path fill="#4568ad" fill-rule="nonzero" d="m184 372.15-1.66-5.92c-1.1-4.04-6.46-7.5-6.46-7.5l-14.77 4.08-12.07 8.07a8.82 8.82 0 0 0-3.2 9.32l.72 2.7a2.2 2.2 0 0 0 2.11 1.6c.2 0 .39-.01.58-.08l33-9.17a2.5 2.5 0 0 0 1.75-3.1Z"/><path fill="url(#f)" fill-rule="nonzero" d="M61.1 23.54c-1.18-.25-2.36-.4-3.47-.4-2.52 0-4.63.78-5.53 2.82-.73 1.62-1.49 3.27-2.28 4.92-1.41 2.99-.26 7.58 3.24 8.68 9.09 2.89 8.84 5.59 14.12 8.04 1.53.71 2.98 1.02 4.34 1.02 6.66 0 11.37-7.4 14.15-12.12-6.11-6.23-14.25-10.69-24.57-12.96Z" transform="translate(24.47 162.23) scale(2.15257)"/><path fill="url(#g)" fill-rule="nonzero" d="m57.46 31.31-7.78-2.3-4.63 17.22-8.32 7.01a16.09 16.09 0 0 0-4.69-.75h-.03l-.39.01-.16.01-.2.02-.21.03-.07.01c-.18.03-.34.08-.44.14-.37.22-.94.72-1.48 1.21a3.7 3.7 0 0 0-1.17 3.01l.06.82c-.07.25.31.83.88 1.17l.1.06.11.05c.44.21.97.26 1.49-.1.68-.45-.05-1.7.27-2.23.37-.63 1.01-1.27 1.01-1.27s1.98-.15 2.41.16c.76.63.98 1.19.55 2.39-.31.86-1.02 1.75-.66 2.04.13.11.26.2.38.28l.03.02c.09.06.18.12.27.16l.16.07a.99.99 0 0 0 .37.07h.04c.46.01.96-.28 1.69-1.01 1.03-1.04 2.01-.69 2.8-1.48l9.9-6.65.12-.08c.19-.1.38-.22.55-.35l.04-.02c.57-.45.99-1.07 1.2-1.78h.01l5.82-17.95-.03.01Z" transform="translate(24.47 162.23) scale(2.15257)"/><path fill="url(#h)" fill-rule="nonzero" d="M32.94 53.71a2.84 2.84 0 1 0 0 5.68 2.84 2.84 0 0 0 0-5.68Z" transform="translate(24.47 162.23) scale(2.15257)"/><path fill="#ed6d23" fill-rule="nonzero" d="M143.1 218.7a11.45 11.45 0 0 0-14.25 7.73l-5.5 20.42 20.95 6.2 6.53-20.13a11.44 11.44 0 0 0-7.73-14.22Z"/><path fill="#543930" fill-rule="nonzero" d="M159.84 201.28a.87.87 0 0 0-.53-.64c-.13-.05-.24-.09-.4-.09a.98.98 0 0 0-.46.13c-1 .56-1.81.73-2.42.73-.25 0-.5-.04-.68-.08 1.46-2 1.44-5.39-.22-7.97-.09-.26-.37-.4-.69-.4l-.17.01a.97.97 0 0 0-.75.74s-1.66 1.59-3.73 1.59a4.1 4.1 0 0 1-1.78-.43c-3.26-3.12-11.5-13.97-14.69-14.08-1.42-.04 1 20.58 1.19 22.32.4 3.88.21 8.5.45 12.55l-.52-.13-.9 2.2c.32.1 2.02.86 4.46.86 1.46 0 3.18-.28 5.03-1.12a5.95 5.95 0 0 0 3.06-3.32c.75.26 1.83.52 2.97.52a5.53 5.53 0 0 0 5.51-4.46c2.63-.86 6.44-3.57 5.27-8.93Z"/><path fill="url(#i)" fill-rule="nonzero" d="M62.89 18.14a.4.4 0 0 0-.25-.3c-.06-.02-.11-.04-.18-.04a.46.46 0 0 0-.22.06 2.3 2.3 0 0 1-1.12.34c-.12 0-.23-.02-.32-.04.68-.93.67-2.5-.1-3.7-.04-.12-.17-.19-.32-.19l-.08.01a.45.45 0 0 0-.35.34s-.77.74-1.73.74a1.9 1.9 0 0 1-.83-.2c-1.51-1.45-5.34-6.49-6.82-6.54-.66-.02.46 9.56.55 10.37.19 1.8.1 3.95.21 5.83l-.24-.06-.42 1.02c.15.05.94.4 2.07.4.68 0 1.48-.13 2.34-.52a2.76 2.76 0 0 0 1.42-1.54c.35.12.85.24 1.38.24a2.57 2.57 0 0 0 2.56-2.07c1.22-.4 2.99-1.66 2.45-4.15Z" transform="translate(24.47 162.23) scale(2.15257)"/><g fill-rule="nonzero"><path fill="url(#j)" d="M45.93 27.8c.11 1.66-2.8 5.42-2.88 5.65-.16.38 1.43.44 1.78.08.35-.36 3.57-3.53 5.64-7.49.93-1.78 3.03-6.51 3.03-6.51l-2.93-1.43s-.86 8.22-2.93 8.19c-2.08-.03-2.04-7.99-2.04-7.99l-4.67 1.94s4.94 6.53 5 7.56Z" transform="translate(24.47 162.23) scale(2.15257)"/><path fill="url(#k)" d="M53.64 7.63a13.95 13.95 0 0 0-9.58-3.64c-1.64 0-3.3.26-4.87.79-1.44.48-5.97 2.71-7.91 6.57a14.73 14.73 0 0 0-1.61 5.19c-.09.98-.1 2.73.69 3.59.35.38.77.5 1.17.5.21 0 .42-.03.62-.07 1.05-.23 3.7-1.35 4.49-1.43l.32-.01c1.66 0 2.89 1.19 3.22 1.43.67.48 1.34.86 2.12.86.67 0 1.43-.27 2.36-.99 1.21-.93 1.48-1.65 2.56-1.84.12-.02.26-.04.4-.04.73 0 1.73.38 2.9 2.2.99 1.54 2.14 2.19 3.12 2.19.57 0 1.08-.21 1.47-.59 1.49-1.42 4.39-9.27-1.47-14.71Z" transform="translate(24.47 162.23) scale(2.15257)"/></g><defs><radialGradient id="b" cx="0" cy="0" r="1" gradientTransform="matrix(23.3325 0 0 -23.3325 97.52 99.74)" gradientUnits="userSpaceOnUse"><stop offset="0" stop-color="#78909c"/><stop offset=".56" stop-color="#617a86"/><stop offset="1" stop-color="#546e7a"/></radialGradient><radialGradient id="c" cx="0" cy="0" r="1" gradientTransform="matrix(23.3325 0 0 -23.3325 30.48 99.74)" gradientUnits="userSpaceOnUse"><stop offset="0" stop-color="#78909c"/><stop offset=".56" stop-color="#617a86"/><stop offset="1" stop-color="#546e7a"/></radialGradient><radialGradient id="f" cx="0" cy="0" r="1" gradientTransform="matrix(15.7197 0 0 -15.7197 67.45 35.88)" gradientUnits="userSpaceOnUse"><stop offset="0" stop-color="#f78c1f"/><stop offset=".37" stop-color="#f78c1f"/><stop offset=".68" stop-color="#f37f21"/><stop offset="1" stop-color="#ed6d23"/></radialGradient><radialGradient id="h" cx="0" cy="0" r="1" gradientTransform="matrix(2.84 0 0 -2.84 32.94 56.55)" gradientUnits="userSpaceOnUse"><stop offset="0" stop-color="#78909c"/><stop offset=".56" stop-color="#617a86"/><stop offset="1" stop-color="#546e7a"/></radialGradient><radialGradient id="i" cx="0" cy="0" r="1" gradientTransform="matrix(17.1874 0 0 -17.1874 43.59 20.13)" gradientUnits="userSpaceOnUse"><stop offset="0" stop-color="#6d4c41" stop-opacity="0"/><stop offset=".78" stop-color="#6d4c41" stop-opacity="0"/><stop offset="1" stop-color="#6d4c41"/></radialGradient><radialGradient id="k" cx="0" cy="0" r="1" gradientTransform="matrix(11.8136 0 0 -11.8136 38.94 12.09)" gradientUnits="userSpaceOnUse"><stop offset="0" stop-color="#81d4fa"/><stop offset=".36" stop-color="#5eb3e7"/><stop offset=".78" stop-color="#3c92d3"/><stop offset="1" stop-color="#2f85cc"/></radialGradient><linearGradient id="d" x1="0" x2="1" y1="0" y2="0" gradientTransform="translate(34.68 79.77) scale(64.4102)" gradientUnits="userSpaceOnUse"><stop offset="0" stop-color="#d8eb21"/><stop offset=".44" stop-color="#d6e921"/><stop offset=".61" stop-color="#b8c721"/><stop offset=".8" stop-color="#adba21"/><stop offset="1" stop-color="#adba21"/></linearGradient><linearGradient id="e" x1="0" x2="1" y1="0" y2="0" gradientTransform="scale(-152.583) rotate(-64.44 -.35 .52)" gradientUnits="userSpaceOnUse"><stop offset="0" stop-color="#ffb300"/><stop offset=".2" stop-color="#ffb300"/><stop offset=".69" stop-color="#ffca28"/><stop offset="1" stop-color="#ffca28"/></linearGradient><linearGradient id="g" x1="0" x2="1" y1="0" y2="0" gradientTransform="translate(27.9 44.82) scale(29.5922)" gradientUnits="userSpaceOnUse"><stop offset="0" stop-color="#ffca28"/><stop offset=".5" stop-color="#ffca28"/><stop offset="1" stop-color="#ffb300"/></linearGradient><linearGradient id="j" x1="0" x2="1" y1="0" y2="0" gradientTransform="rotate(94.98 13.08 32.88) scale(7.8478)" gradientUnits="userSpaceOnUse"><stop offset="0" stop-color="#646464"/><stop offset=".99" stop-color="#262626"/><stop offset="1" stop-color="#262626"/></linearGradient></defs></svg>
