<?xml version="1.0" encoding="UTF-8" standalone="no"?>
<!DOCTYPE svg PUBLIC "-//W3C//DTD SVG 1.1//EN" "http://www.w3.org/Graphics/SVG/1.1/DTD/svg11.dtd">
<svg width="100%" height="100%" viewBox="0 0 600 600" version="1.1" xmlns="http://www.w3.org/2000/svg" xmlns:xlink="http://www.w3.org/1999/xlink" xml:space="preserve" xmlns:serif="http://www.serif.com/" style="fill-rule:evenodd;clip-rule:evenodd;stroke-linejoin:round;stroke-miterlimit:2;">
    <g transform="matrix(1.04167,0,0,1.04167,-16.6667,-16.6667)">
        <g id="Calque1">
            <path d="M304,592C430.2,592 500.356,592 546.178,546.178C592,500.356 592,430.2 592,304C592,177.8 592,107.644 546.178,61.822C500.356,16 430.2,16 304,16C177.8,16 107.644,16 61.822,61.822C16,107.644 16,177.8 16,304C16,430.2 16,500.356 61.822,546.178C107.644,592 177.8,592 304,592Z" style="fill-rule:nonzero;"/>
            <clipPath id="_clip1">
                <path d="M304,592C430.2,592 500.356,592 546.178,546.178C592,500.356 592,430.2 592,304C592,177.8 592,107.644 546.178,61.822C500.356,16 430.2,16 304,16C177.8,16 107.644,16 61.822,61.822C16,107.644 16,177.8 16,304C16,430.2 16,500.356 61.822,546.178C107.644,592 177.8,592 304,592Z" clip-rule="nonzero"/>
            </clipPath>
            <g clip-path="url(#_clip1)">
                <g transform="matrix(0.96,0,0,0.96,16,16)">
                    <rect x="0" y="0" width="600" height="600" style="fill:rgb(43,33,53);"/>
                </g>
            </g>
        </g>
    </g>
    <g id="noto-emoji" transform="matrix(2.15257,0,0,2.15257,-175.328,-345.772)">
        <g transform="matrix(1,0,0,1,284.818,300)">
            <g transform="matrix(1,0,0,1,-64,-64)">
                <g>
                    <path d="M58.34,54.22C58.34,52.84 58.11,52.1 54.03,51.45C50.9,50.95 11.65,52.87 9.29,53.02C4.73,53.32 2.96,55.17 3,58.53C3.03,61.46 6.39,63.97 7.19,65.18C7.99,66.39 7.93,67.52 6.94,68.79C6.18,69.77 2.96,71.11 2.96,74.8C2.96,79.33 5.92,81.61 9.29,81.91C14.59,82.37 38.86,82.79 45.1,83.23C48.11,83.44 49.95,84.78 52.96,85C54.34,85 58.34,81.67 58.34,80.29L58.34,54.22Z" style="fill:rgb(146,203,235);fill-rule:nonzero;"/>
                    <path d="M123.05,62.41C123.05,33.15 105.33,31.71 105.33,31.71C105.34,31.43 106.26,14.41 89.33,10.74C75.55,7.75 66.76,13.29 62.36,18.27C54.11,13.96 42.26,15.26 36.81,24.3C33.94,29.07 34.3,36.39 36.19,41.62C38.09,46.89 41.86,50.15 45.59,54.32C56.34,66.36 52.52,70.95 46.96,78.41C43.52,83.02 35.92,96.82 47.6,109.6C55.82,118.59 73.88,113.56 73.88,113.56C75.21,113.96 87.06,123.15 100.23,114.43C114.29,105.12 108.8,87.66 108.8,87.66C108.8,87.66 123.05,80.59 123.05,62.41Z" style="fill:rgb(213,235,245);fill-rule:nonzero;"/>
                    <path d="M70.17,86.73C70.96,86.5 71,85.4 70.21,85.14C66.71,84 60.39,81.32 56.65,75.98C53.02,70.8 50.83,58.47 58.34,52.91C69.38,44.72 67.61,35.42 64.83,31.97C61.93,28.37 54.17,29.07 54.29,35.36C54.31,36.52 54.65,37.66 55.14,38.71C56.42,41.47 58.41,45.61 55.64,48.32C54.32,49.61 52.39,50 50.58,49.65C46.3,48.82 43.05,45.48 41.34,41.6C36.4,30.37 40.59,23.6 46.48,17.74C46.79,17.43 46.47,16.9 46.05,17.04C38.68,19.45 35.04,25.46 34.75,32.18C34.54,37.12 35.53,42.08 38.15,46.27C40.17,49.5 43.57,52.28 45.83,55.34C47.59,57.72 51.14,60.66 50.58,63.93C50.04,67.09 47.65,69.88 45.75,72.3C40.34,79.19 37.55,88.51 39.77,96.98C43.88,112.66 56.09,114.6 60.13,114.81C60.45,114.83 60.56,114.37 60.27,114.26C56.15,112.7 53.72,111.09 52.75,110.3C45.13,104.05 43.34,93.22 46.91,84.01C47.17,83.33 47.59,82.71 48.17,82.26C50.67,80.32 52.52,84.03 56.73,86.12C61.6,88.53 67.06,87.62 70.17,86.73Z" style="fill:rgb(146,203,235);fill-rule:nonzero;"/>
                    <path d="M103.55,35.62C106.6,32.64 105.04,22.14 100.58,17.25C99.32,15.87 97.02,16.93 97.19,18.79C97.46,21.91 97.99,26.46 96.17,31.15C95.12,33.86 96.06,36.19 97.8,36.99C98.65,37.38 101.06,38.06 103.55,35.62Z" style="fill:rgb(146,203,235);fill-rule:nonzero;"/>
                    <path d="M122.24,68.5C122.67,66.63 122.91,64.88 123.02,63.29C123.07,62.53 122.01,62.32 121.78,63.04C120.48,67.2 117.65,72.64 111.51,75.9C109.5,76.97 107.28,77.61 105.24,78.62C102.61,79.93 99.05,81.19 99.11,84.7C99.2,89.53 106.85,89.92 112.63,85.18C117.82,80.91 120.89,74.36 122.24,68.5Z" style="fill:rgb(97,191,232);fill-rule:nonzero;"/>
                    <path d="M102.56,112.77C103.12,112.33 102.64,111.47 101.97,111.7C95.72,113.8 88.56,113.21 82.8,109.96C81.55,109.25 78.42,106.97 75.15,106.72C73.08,106.56 71.23,108.17 71.37,110.24C71.46,111.64 72.28,112.92 73.32,113.86C76.12,116.39 80.34,117.46 84,117.89C88.57,118.43 93.43,117.68 97.71,115.74C99.68,114.85 101.31,113.76 102.56,112.77Z" style="fill:rgb(97,191,232);fill-rule:nonzero;"/>
                    <path d="M18.64,43.28C22.31,41.79 25.72,39.38 27.72,35.96C29.72,32.55 30.1,28.04 28.06,24.65C26.02,21.26 21.34,19.5 17.8,21.27C15.17,22.59 14.45,25.1 15.75,28.07C16.81,30.49 18.66,30.91 18.3,34.06C17.84,38.12 12.82,41.6 10.44,42.6C8.42,43.44 4.9,45.99 9.29,45.68C12.38,45.48 15.78,44.44 18.64,43.28Z" style="fill:rgb(146,203,235);fill-rule:nonzero;"/>
                    <path d="M29.42,100.96C30.42,103.49 31.84,110.03 25.98,110.85C21.28,111.51 18.56,106.37 17.5,101.84C16.08,95.78 10.84,92.63 8.44,90.37C7.95,89.91 8.24,89.09 8.92,89.04C13.26,88.71 24.7,89.06 29.42,100.96Z" style="fill:rgb(97,191,232);fill-rule:nonzero;"/>
                    <path d="M70.49,15.43C69.17,16.5 67.86,17.97 66.68,19.19C66.26,19.62 64.26,22.26 62.33,20.59C61.4,19.78 62.3,17.81 62.6,17.26C63.76,15.14 67.33,11.28 74.77,9.7C77.23,9.18 84.35,9.29 84.35,10C84.35,10.96 76.06,10.88 70.49,15.43Z" style="fill:rgb(146,203,235);fill-rule:nonzero;"/>
                    <path d="M34.66,60.25L3.37,60.25C3.84,61.37 4.66,62.39 5.44,63.25L34.66,63.25C35.49,63.25 36.16,62.58 36.16,61.75C36.16,60.92 35.49,60.25 34.66,60.25Z" style="fill:rgb(3,155,229);fill-rule:nonzero;"/>
                    <path d="M43.42,69.11L6.63,69.11C5.63,70 3.63,70.82 3.17,73.28L43.42,73.28C44.8,73.28 45.92,72.15 45.92,70.77C45.92,69.39 44.8,69.11 43.42,69.11Z" style="fill:rgb(3,155,229);fill-rule:nonzero;"/>
                </g>
            </g>
        </g>
        <g transform="matrix(1,0,0,1,156.818,300)">
            <g transform="matrix(1,0,0,1,-64,-64)">
                <path id="shoe" d="M80.28,80.98L78.65,78.64C77.55,77.05 74.67,76.36 74.67,76.36L68.82,80.42L64.76,85.82C63.83,87.21 63.84,89.02 64.79,90.39L65.52,91.45C65.72,91.74 66.04,91.89 66.36,91.89C66.56,91.89 66.76,91.83 66.94,91.71L79.99,82.61C80.52,82.24 80.65,81.51 80.28,80.98Z" style="fill:rgb(69,104,173);fill-rule:nonzero;"/>
                <path id="head" d="M51.68,10.35C48.44,6.98 42.35,5.11 37.98,6.79C33.09,8.67 31.13,12.86 31.38,17.6C31.47,19.32 31.87,20.97 32.41,22.09C32.47,22.22 32.97,23.19 33.06,23.51C33.51,24.71 31.36,26.44 31.36,27.87C31.36,28.94 33.67,29.15 33.87,29.3C34.91,30.05 34.5,34.69 40.53,33.92C42.56,33.66 42.66,33.45 43.39,33.41C45.29,33.29 50.65,35.04 50.65,35.04L52.77,30.6C52.77,30.6 51.03,29.8 52.73,24.43C54.04,20.31 53.76,12.51 51.68,10.35Z" style="fill:rgb(255,202,40);fill-rule:nonzero;"/>
                <path id="mouth" d="M35.01,31.63C35.84,31.51 36.62,31.15 37.2,30.49C37.84,29.77 37.19,29.26 36.4,29.8C35.92,30.13 35.2,30.4 34.5,30.41L35.01,31.63Z" style="fill:rgb(121,85,72);fill-rule:nonzero;"/>
                <g id="eye" transform="matrix(0.9705,-0.2411,0.2411,0.9705,-4.5615,9.5828)">
                    <ellipse cx="36.88" cy="23.43" rx="1.11" ry="1.69" style="fill:rgb(64,64,64);"/>
                </g>
                <path id="eyebrow" d="M35.65,21.34C34.72,21.98 34.26,21.39 34.42,20.73C34.54,20.25 35.05,19.71 36.33,19.54C37.53,19.39 38.22,19.88 38.65,20.17C39.09,20.46 39.18,20.87 38.93,20.99C38.59,21.16 36.8,20.55 35.65,21.34Z" style="fill:rgb(109,76,65);fill-rule:nonzero;"/>
                <path id="hair" d="M53.13,12.16C52.7,11.58 52.23,11.04 51.69,10.56C50.93,9.88 50.05,9.35 49.13,8.92C46.69,7.79 43.89,7.42 41.25,7.96C38.61,8.5 36.17,9.98 34.52,12.11C33.25,13.76 32.47,16.02 33.27,17.94C34.26,17.65 34.99,16.79 36.07,16.57C37.47,16.27 39,16.25 40.19,15.46C40.65,15.16 41.04,14.75 41.47,14.41C41.58,14.38 41.65,14.37 41.65,14.37C43.56,14.92 42.15,19.4 44.56,21.35C45.04,21.74 45.6,22.06 45.6,22.06C45.6,22.06 45.19,18.9 47.21,18.87C49.31,18.84 49.48,20.99 48.88,22.82C48.26,24.72 47.19,24.05 47.57,24.68C48.19,25.71 51.38,26.01 52.38,25.8C53.72,25.53 54.58,24.07 55.38,22.96C56.31,21.68 56.23,20.16 56.09,18.58C55.93,16.84 55.1,15.23 54.18,13.74C53.85,13.19 53.5,12.66 53.13,12.16Z" style="fill:rgb(84,57,48);fill-rule:nonzero;"/>
                <g id="hair_1_">
                    <path d="M48.57,25.35L49.33,24.57C49.24,24.54 49.14,24.52 49.06,24.49C49.33,24.19 49.6,23.75 49.81,23.1C50.07,22.31 50.56,20.33 49.56,18.95C49.2,18.46 48.51,17.86 47.26,17.86L47.2,17.86C46.48,17.87 45.85,18.15 45.4,18.68C45.05,19.08 44.85,19.58 44.73,20.08C44.29,19.45 44.1,18.61 43.97,17.74L43.05,18.16C43.25,19.34 43.6,20.54 44.56,21.32C45.04,21.71 45.6,22.03 45.6,22.03C45.6,22.03 45.19,18.87 47.21,18.84L47.26,18.84C49.31,18.84 49.48,20.97 48.89,22.79C48.27,24.69 47.2,24.02 47.58,24.65C47.73,24.95 48.11,25.17 48.57,25.35Z" style="fill:rgb(84,57,48);fill-rule:nonzero;"/>
                </g>
                <path id="tone" d="M83.56,49.62L77.35,37.95L53.3,51.86L53.3,51.87C50.56,53.32 49.53,56.72 50.98,59.46C51.13,59.75 51.31,60.01 51.51,60.26L51.55,60.31C51.6,60.37 51.65,60.43 51.7,60.5L68.56,80.77L75.64,75.56L64.26,59.01L83.56,49.62Z" style="fill:rgb(237,166,0);fill-rule:nonzero;"/>
                <path id="pants_1_" d="M87.51,40.02C86.11,37.38 83.38,35.86 80.57,35.86C79.32,35.86 78.06,36.16 76.88,36.78L76.88,36.77L59.91,46.63L66.95,59.87L84.26,50.66C88.1,48.62 89.55,43.86 87.51,40.02Z" style="fill:rgb(100,100,100);fill-rule:nonzero;"/>
                <path id="sock_1_" d="M71.3,69.26L63.66,74.88L68.56,80.77L75.64,75.56L71.3,69.26Z" style="fill:rgb(224,224,224);fill-rule:nonzero;"/>
                <g id="bike">
                    <path d="M97.52,76.41C84.65,76.41 74.18,86.88 74.18,99.74C74.18,112.61 84.65,123.07 97.52,123.07C110.38,123.07 120.85,112.6 120.85,99.74C120.85,86.87 110.39,76.41 97.52,76.41ZM97.52,114.74C89.26,114.74 82.51,108.01 82.51,99.74C82.51,91.47 89.25,84.74 97.52,84.74C105.79,84.74 112.52,91.47 112.52,99.74C112.52,108.01 105.79,114.74 97.52,114.74Z" style="fill:url(#_Radial2);fill-rule:nonzero;"/>
                    <path d="M30.48,76.41C17.61,76.41 7.14,86.88 7.14,99.74C7.14,112.61 17.61,123.07 30.48,123.07C43.34,123.07 53.81,112.6 53.81,99.74C53.81,86.87 43.35,76.41 30.48,76.41ZM30.48,114.74C22.22,114.74 15.47,108.01 15.47,99.74C15.47,91.47 22.21,84.74 30.48,84.74C38.75,84.74 45.48,91.47 45.48,99.74C45.48,108.01 38.75,114.74 30.48,114.74Z" style="fill:url(#_Radial3);fill-rule:nonzero;"/>
                    <path d="M99.92,98.07C99.83,97.83 99.71,97.61 99.55,97.4L90.38,85.06L80.19,71.32L83.93,63.19C84.01,63.02 84.07,62.84 84.11,62.66C84.15,62.48 84.18,62.3 84.18,62.12C84.19,61.94 84.17,61.76 84.14,61.59C84.08,61.24 83.96,60.91 83.77,60.61C83.49,60.16 83.09,59.78 82.57,59.55C82.39,59.47 82.21,59.41 82.02,59.37C81.95,59.36 81.89,59.35 81.82,59.34C81.7,59.32 81.58,59.3 81.46,59.3L81.42,59.3C81.39,59.3 81.36,59.31 81.34,59.31C81.14,59.32 80.94,59.34 80.75,59.39C80.7,59.4 80.65,59.41 80.6,59.43C80.38,59.5 80.17,59.59 79.97,59.71C79.96,59.72 79.94,59.73 79.93,59.74C79.75,59.86 79.59,60 79.44,60.15C79.4,60.19 79.36,60.24 79.32,60.28C79.17,60.46 79.03,60.66 78.93,60.88L78.91,60.92L75.3,68.77L43.33,64.15L44.4,60.1C44.79,58.64 43.91,57.14 42.44,56.75C42.43,56.75 42.41,56.75 42.4,56.74C42.18,56.68 41.96,56.65 41.74,56.65C40.53,56.65 39.42,57.46 39.09,58.69L36.83,67.24L28.33,99.41C27.95,100.87 28.82,102.37 30.28,102.76C30.52,102.82 30.75,102.85 30.99,102.85L31,102.85C32.21,102.85 33.32,102.04 33.65,100.81L41.27,71.95L62.21,100.64C62.26,100.71 62.33,100.77 62.39,100.83C62.45,100.89 62.5,100.95 62.56,101.01C62.62,101.07 62.68,101.12 62.75,101.17L62.77,101.19C62.78,101.2 62.8,101.21 62.81,101.22C62.87,101.27 62.93,101.31 63,101.35C63.03,101.37 63.05,101.39 63.08,101.4C63.11,101.41 63.14,101.43 63.17,101.45C63.18,101.45 63.19,101.46 63.2,101.47C63.22,101.48 63.24,101.49 63.26,101.5C63.29,101.51 63.31,101.52 63.34,101.53C63.37,101.54 63.41,101.56 63.44,101.57C63.51,101.6 63.59,101.63 63.66,101.65C63.71,101.67 63.76,101.69 63.82,101.7C64.01,101.74 64.22,101.77 64.42,101.77L97.34,101.77C98.38,101.77 99.33,101.19 99.79,100.26C100.15,99.59 100.19,98.78 99.92,98.07ZM46.79,70.21L63.26,72.59L72.92,73.99L63.9,93.64L46.79,70.21ZM68.72,96.29L77.58,77.02L91.9,96.29L68.72,96.29Z" style="fill:url(#_Linear4);fill-rule:nonzero;"/>
                    <path d="M71.04,99.48C70.57,98.46 69.71,97.74 68.79,97.59C67.61,97.39 62.73,98.98 62.01,99.31C60.26,100.09 58.13,102.31 59.1,104.62C59.71,106.04 60.58,106.47 61.51,106.47C62.29,106.47 63.1,106.17 63.84,105.9L64.4,105.7C64.77,105.57 65.2,105.44 65.65,105.31C67.61,104.73 70.05,104 71.05,102.32C71.5,101.54 71.51,100.48 71.04,99.48Z" style="fill:rgb(80,79,79);fill-rule:nonzero;"/>
                    <path d="M43.16,56.25L34.62,54.2C34.41,54.14 34.19,54.12 33.98,54.12C32.74,54.12 31.61,54.96 31.31,56.22C30.96,57.7 31.86,59.18 33.34,59.53L41.88,61.58C42.09,61.63 42.3,61.66 42.52,61.66C43.76,61.66 44.88,60.82 45.19,59.56C45.54,58.09 44.63,56.61 43.16,56.25Z" style="fill:rgb(64,89,102);fill-rule:nonzero;"/>
                    <path d="M88.44,56.77C88.31,56.67 88.17,56.57 88.03,56.49C86.88,55.84 85.59,55.99 84.27,55.93C82.67,55.85 81.05,55.78 79.45,55.68C78.57,55.62 77.69,55.61 76.81,55.61C75.78,55.61 74.74,55.63 73.72,55.63C72.94,55.63 72.17,55.62 71.4,55.58C71.36,55.57 71.3,55.57 71.24,55.57C69.77,55.57 68.38,56.68 67.87,58C67.15,59.87 68.42,61.05 70.01,61.91C71.96,62.97 74.15,63.47 76.28,63.99C78.6,64.55 80.92,65.29 83.3,65.61C83.6,65.65 83.9,65.67 84.21,65.67C86.27,65.67 88.4,64.76 89.57,63.05C90.97,61.01 90.39,58.29 88.44,56.77Z" style="fill:rgb(80,79,79);fill-rule:nonzero;"/>
                </g>
                <path id="leg" d="M86.54,46.67L75.3,39.71L61.53,63.85L61.54,63.85C60.78,65.08 60.56,66.48 60.8,67.8L63.57,93.64L70.36,93.55L71.84,68.65L86.54,46.67Z" style="fill:url(#_Linear5);fill-rule:nonzero;"/>
                <path id="sock" d="M62.59,85.99L63.57,93.63L70.36,93.54L70.95,85.9L62.59,85.99Z" style="fill:rgb(224,224,224);fill-rule:nonzero;"/>
                <path id="pants" d="M85.13,36.38C83.84,35.59 82.41,35.21 81,35.21C78.37,35.21 75.79,36.53 74.3,38.94L64.17,56.35L76.92,64.24C76.92,64.24 86.48,49.44 87.68,47.21C89.61,43.61 88.83,38.67 85.13,36.38Z" style="fill:rgb(124,124,124);fill-rule:nonzero;"/>
                <path id="shoe_1_" d="M74.11,97.52L73.34,94.77C72.83,92.89 70.34,91.28 70.34,91.28L63.48,93.18L57.87,96.93C56.54,97.93 55.95,99.64 56.38,101.26L56.72,102.51C56.84,102.96 57.26,103.26 57.7,103.26C57.79,103.26 57.88,103.25 57.97,103.22L73.3,98.96C73.92,98.79 74.29,98.14 74.11,97.52Z" style="fill:rgb(69,104,173);fill-rule:nonzero;"/>
                <path id="shirt" d="M61.1,23.54C59.92,23.29 58.74,23.14 57.63,23.14C55.11,23.14 53,23.92 52.1,25.96C51.37,27.58 50.61,29.23 49.82,30.88C48.41,33.87 49.56,38.46 53.06,39.56C62.15,42.45 61.9,45.15 67.18,47.6C68.71,48.31 70.16,48.62 71.52,48.62C78.18,48.62 82.89,41.22 85.67,36.5C79.56,30.27 71.42,25.81 61.1,23.54Z" style="fill:url(#_Radial6);fill-rule:nonzero;"/>
                <path id="arm" d="M57.46,31.31L49.68,29.01L45.05,46.23L36.73,53.24C35.29,52.75 33.39,52.49 32.04,52.49L32.01,52.49C31.87,52.49 31.74,52.49 31.62,52.5C31.56,52.5 31.51,52.51 31.46,52.51C31.39,52.52 31.32,52.52 31.26,52.53C31.19,52.54 31.11,52.55 31.05,52.56C31.03,52.56 31.01,52.57 30.98,52.57C30.8,52.6 30.64,52.65 30.54,52.71C30.17,52.93 29.6,53.43 29.06,53.92C28.23,54.69 27.8,55.8 27.89,56.93L27.95,57.75C27.88,58 28.26,58.58 28.83,58.92C28.86,58.94 28.9,58.96 28.93,58.98C28.96,59 29,59.01 29.04,59.03C29.48,59.24 30.01,59.29 30.53,58.93C31.21,58.48 30.48,57.23 30.8,56.7C31.17,56.07 31.81,55.43 31.81,55.43C31.81,55.43 33.79,55.28 34.22,55.59C34.98,56.22 35.2,56.78 34.77,57.98C34.46,58.84 33.75,59.73 34.11,60.02C34.24,60.13 34.37,60.22 34.49,60.3C34.5,60.31 34.51,60.31 34.52,60.32C34.61,60.38 34.7,60.44 34.79,60.48C34.84,60.51 34.9,60.52 34.95,60.55C34.99,60.57 35.03,60.58 35.08,60.59C35.16,60.61 35.24,60.62 35.32,60.62L35.36,60.62C35.82,60.63 36.32,60.34 37.05,59.61C38.08,58.57 39.06,58.92 39.85,58.13L49.75,51.48L49.87,51.4C50.06,51.3 50.25,51.18 50.42,51.05L50.46,51.03C51.03,50.58 51.45,49.96 51.66,49.25L51.67,49.25L57.49,31.3L57.46,31.31Z" style="fill:url(#_Linear7);fill-rule:nonzero;"/>
                <path id="handle" d="M32.94,53.71C31.37,53.71 30.1,54.98 30.1,56.55C30.1,58.12 31.37,59.39 32.94,59.39C34.51,59.39 35.78,58.12 35.78,56.55C35.78,54.98 34.5,53.71 32.94,53.71Z" style="fill:url(#_Radial8);fill-rule:nonzero;"/>
                <path id="shirt_1_" d="M55.11,26.23C54.6,26.08 54.09,26.01 53.59,26.01C51.29,26.01 49.17,27.51 48.49,29.82L45.94,39.31L55.67,42.19L58.7,32.84C59.53,30.02 57.93,27.06 55.11,26.23Z" style="fill:rgb(237,109,35);fill-rule:nonzero;"/>
                <g id="hair_2_">
                    <path d="M62.89,18.14C62.86,18 62.77,17.89 62.64,17.84C62.58,17.82 62.53,17.8 62.46,17.8C62.39,17.8 62.31,17.82 62.24,17.86C61.78,18.12 61.4,18.2 61.12,18.2C61,18.2 60.89,18.18 60.8,18.16C61.48,17.23 61.47,15.66 60.7,14.46C60.66,14.34 60.53,14.27 60.38,14.27C60.35,14.27 60.33,14.27 60.3,14.28C60.13,14.31 59.99,14.45 59.95,14.62C59.95,14.62 59.18,15.36 58.22,15.36C57.96,15.36 57.68,15.3 57.39,15.16C55.88,13.71 52.05,8.67 50.57,8.62C49.91,8.6 51.03,18.18 51.12,18.99C51.31,20.79 51.22,22.94 51.33,24.82C51.22,24.79 51.13,24.77 51.09,24.76L50.67,25.78C50.82,25.83 51.61,26.18 52.74,26.18C53.42,26.18 54.22,26.05 55.08,25.66C55.93,25.28 56.31,24.58 56.5,24.12C56.85,24.24 57.35,24.36 57.88,24.36C58.26,24.36 58.65,24.3 59.01,24.12C60.03,23.62 60.35,22.76 60.44,22.29C61.66,21.89 63.43,20.63 62.89,18.14Z" style="fill:rgb(84,57,48);fill-rule:nonzero;"/>
                </g>
                <path id="hairHighlights" d="M62.89,18.14C62.86,18 62.77,17.89 62.64,17.84C62.58,17.82 62.53,17.8 62.46,17.8C62.39,17.8 62.31,17.82 62.24,17.86C61.78,18.12 61.4,18.2 61.12,18.2C61,18.2 60.89,18.18 60.8,18.16C61.48,17.23 61.47,15.66 60.7,14.46C60.66,14.34 60.53,14.27 60.38,14.27C60.35,14.27 60.33,14.27 60.3,14.28C60.13,14.31 59.99,14.45 59.95,14.62C59.95,14.62 59.18,15.36 58.22,15.36C57.96,15.36 57.68,15.3 57.39,15.16C55.88,13.71 52.05,8.67 50.57,8.62C49.91,8.6 51.03,18.18 51.12,18.99C51.31,20.79 51.22,22.94 51.33,24.82C51.22,24.79 51.13,24.77 51.09,24.76L50.67,25.78C50.82,25.83 51.61,26.18 52.74,26.18C53.42,26.18 54.22,26.05 55.08,25.66C55.93,25.28 56.31,24.58 56.5,24.12C56.85,24.24 57.35,24.36 57.88,24.36C58.26,24.36 58.65,24.3 59.01,24.12C60.03,23.62 60.35,22.76 60.44,22.29C61.66,21.89 63.43,20.63 62.89,18.14Z" style="fill:url(#_Radial9);fill-rule:nonzero;"/>
                <g id="helmet">
                    <path d="M45.93,27.8C46.04,29.46 43.13,33.22 43.05,33.45C42.89,33.83 44.48,33.89 44.83,33.53C45.18,33.17 48.4,30 50.47,26.04C51.4,24.26 53.5,19.53 53.5,19.53L50.57,18.1C50.57,18.1 49.71,26.32 47.64,26.29C45.56,26.26 45.6,18.3 45.6,18.3L40.93,20.24C40.93,20.24 45.87,26.77 45.93,27.8Z" style="fill:url(#_Linear10);fill-rule:nonzero;"/>
                    <path d="M53.64,7.63C51.04,5.19 47.56,3.99 44.06,3.99C42.42,3.99 40.76,4.25 39.19,4.78C37.75,5.26 33.22,7.49 31.28,11.35C30.47,12.97 29.83,14.74 29.67,16.54C29.58,17.52 29.57,19.27 30.36,20.13C30.71,20.51 31.13,20.63 31.53,20.63C31.74,20.63 31.95,20.6 32.15,20.56C33.2,20.33 35.85,19.21 36.64,19.13C36.75,19.12 36.85,19.12 36.96,19.12C38.62,19.12 39.85,20.31 40.18,20.55C40.85,21.03 41.52,21.41 42.3,21.41C42.97,21.41 43.73,21.14 44.66,20.42C45.87,19.49 46.14,18.77 47.22,18.58C47.34,18.56 47.48,18.54 47.62,18.54C48.35,18.54 49.35,18.92 50.52,20.74C51.51,22.28 52.66,22.93 53.64,22.93C54.21,22.93 54.72,22.72 55.11,22.34C56.6,20.92 59.5,13.07 53.64,7.63Z" style="fill:url(#_Radial11);fill-rule:nonzero;"/>
                </g>
            </g>
        </g>
    </g>
    <defs>
        <radialGradient id="_Radial2" cx="0" cy="0" r="1" gradientUnits="userSpaceOnUse" gradientTransform="matrix(23.3325,0,0,-23.3325,97.515,99.74)"><stop offset="0" style="stop-color:rgb(120,144,156);stop-opacity:1"/><stop offset="0.56" style="stop-color:rgb(97,122,134);stop-opacity:1"/><stop offset="1" style="stop-color:rgb(84,110,122);stop-opacity:1"/></radialGradient>
        <radialGradient id="_Radial3" cx="0" cy="0" r="1" gradientUnits="userSpaceOnUse" gradientTransform="matrix(23.3325,0,0,-23.3325,30.475,99.74)"><stop offset="0" style="stop-color:rgb(120,144,156);stop-opacity:1"/><stop offset="0.56" style="stop-color:rgb(97,122,134);stop-opacity:1"/><stop offset="1" style="stop-color:rgb(84,110,122);stop-opacity:1"/></radialGradient>
        <linearGradient id="_Linear4" x1="0" y1="0" x2="1" y2="0" gradientUnits="userSpaceOnUse" gradientTransform="matrix(64.4102,0,0,64.4102,34.6812,79.7685)"><stop offset="0" style="stop-color:rgb(216,235,33);stop-opacity:1"/><stop offset="0.44" style="stop-color:rgb(214,233,33);stop-opacity:1"/><stop offset="0.61" style="stop-color:rgb(184,199,33);stop-opacity:1"/><stop offset="0.8" style="stop-color:rgb(173,186,33);stop-opacity:1"/><stop offset="1" style="stop-color:rgb(173,186,33);stop-opacity:1"/></linearGradient>
        <linearGradient id="_Linear5" x1="0" y1="0" x2="1" y2="0" gradientUnits="userSpaceOnUse" gradientTransform="matrix(-65.828,137.653,-137.653,-65.828,102.028,3.2203)"><stop offset="0" style="stop-color:rgb(255,179,0);stop-opacity:1"/><stop offset="0.2" style="stop-color:rgb(255,179,0);stop-opacity:1"/><stop offset="0.69" style="stop-color:rgb(255,202,40);stop-opacity:1"/><stop offset="1" style="stop-color:rgb(255,202,40);stop-opacity:1"/></linearGradient>
        <radialGradient id="_Radial6" cx="0" cy="0" r="1" gradientUnits="userSpaceOnUse" gradientTransform="matrix(15.7197,0,0,-15.7197,67.4515,35.88)"><stop offset="0" style="stop-color:rgb(247,140,31);stop-opacity:1"/><stop offset="0.37" style="stop-color:rgb(247,140,31);stop-opacity:1"/><stop offset="0.68" style="stop-color:rgb(243,127,33);stop-opacity:1"/><stop offset="1" style="stop-color:rgb(237,109,35);stop-opacity:1"/></radialGradient>
        <linearGradient id="_Linear7" x1="0" y1="0" x2="1" y2="0" gradientUnits="userSpaceOnUse" gradientTransform="matrix(29.5922,0,0,29.5922,27.8908,44.8245)"><stop offset="0" style="stop-color:rgb(255,202,40);stop-opacity:1"/><stop offset="0.5" style="stop-color:rgb(255,202,40);stop-opacity:1"/><stop offset="1" style="stop-color:rgb(255,179,0);stop-opacity:1"/></linearGradient>
        <radialGradient id="_Radial8" cx="0" cy="0" r="1" gradientUnits="userSpaceOnUse" gradientTransform="matrix(2.84,0,0,-2.84,32.94,56.55)"><stop offset="0" style="stop-color:rgb(120,144,156);stop-opacity:1"/><stop offset="0.56" style="stop-color:rgb(97,122,134);stop-opacity:1"/><stop offset="1" style="stop-color:rgb(84,110,122);stop-opacity:1"/></radialGradient>
        <radialGradient id="_Radial9" cx="0" cy="0" r="1" gradientUnits="userSpaceOnUse" gradientTransform="matrix(17.1874,0,0,-17.1874,43.5867,20.1315)"><stop offset="0" style="stop-color:rgb(109,76,65);stop-opacity:0"/><stop offset="0.78" style="stop-color:rgb(109,76,65);stop-opacity:0"/><stop offset="1" style="stop-color:rgb(109,76,65);stop-opacity:1"/></radialGradient>
        <linearGradient id="_Linear10" x1="0" y1="0" x2="1" y2="0" gradientUnits="userSpaceOnUse" gradientTransform="matrix(-0.681206,7.81818,-7.81818,-0.681206,46.9688,22.71)"><stop offset="0" style="stop-color:rgb(100,100,100);stop-opacity:1"/><stop offset="0.99" style="stop-color:rgb(38,38,38);stop-opacity:1"/><stop offset="1" style="stop-color:rgb(38,38,38);stop-opacity:1"/></linearGradient>
        <radialGradient id="_Radial11" cx="0" cy="0" r="1" gradientUnits="userSpaceOnUse" gradientTransform="matrix(11.8136,0,0,-11.8136,38.9441,12.0868)"><stop offset="0" style="stop-color:rgb(129,212,250);stop-opacity:1"/><stop offset="0.36" style="stop-color:rgb(94,179,231);stop-opacity:1"/><stop offset="0.78" style="stop-color:rgb(60,146,211);stop-opacity:1"/><stop offset="1" style="stop-color:rgb(47,133,204);stop-opacity:1"/></radialGradient>
    </defs>
</svg>
